M48
METRIC,LZ,000.000
;FILE_FORMAT=3:3
;TYPE=PLATED
;Layer: PTH_Through
;EasyEDA v6.4.31, 2022-03-03 13:31:49
;40e5de87a7664572b24e6dd0e93d503d,d021fe9ff0164b2b908f64b513dd86bf,10
;Gerber Generator version 0.2
;Holesize 1 = 0.306 mm
T01C0.306
;Holesize 2 = 0.501 mm
T02C0.501
;Holesize 3 = 1.101 mm
T03C1.101
%
G05
G90
T01
X033871Y057779
X015634Y060572
X019826Y065074
X029333Y049572
X026583Y059563
X037973Y043815
X027003Y054332
X040294Y044162
X017585Y055328
X039828Y063902
X033423Y056313
X028693Y055609
X036985Y063902
X042467Y048128
X042467Y055016
X036192Y051993
X027833Y058120
X012614Y047636
X011790Y052866
X017065Y049229
X017780Y047752
X020527Y046768
X020912Y052458
X016767Y063816
X027951Y052227
X014223Y060984
X026747Y052275
X010650Y042985
X011299Y054328
X020794Y053741
X016241Y047555
X030582Y046556
X028372Y049551
X030728Y045216
X027795Y044891
T02
X051225Y053492G85X050525Y053492
X051225Y047092G85X050525Y047092
T03
X036449Y040640
X038989Y040640
X041529Y040640
X044069Y040640
X035814Y065913
X038354Y065913
X040894Y065913
X043434Y065913
M30
