G04 Layer: TopPasteMaskLayer*
G04 EasyEDA v6.4.31, 2022-03-03 13:31:49*
G04 40e5de87a7664572b24e6dd0e93d503d,d021fe9ff0164b2b908f64b513dd86bf,10*
G04 Gerber Generator version 0.2*
G04 Scale: 100 percent, Rotated: No, Reflected: No *
G04 Dimensions in millimeters *
G04 leading zeros omitted , absolute positions ,4 integer and 5 decimal *
%FSLAX45Y45*%
%MOMM*%

%ADD14C,0.5600*%
%ADD15C,0.2700*%
%ADD17R,0.5999X0.6500*%
%ADD18R,0.6500X0.5999*%
%ADD19R,0.8103X0.8103*%
%ADD23R,1.5011X0.5994*%
%ADD24R,0.5994X1.5011*%
%ADD25R,0.3360X0.8250*%
%ADD26R,2.2000X1.2000*%

%LPD*%
G36*
X5052517Y5404205D02*
G01*
X5045760Y5403748D01*
X5039156Y5402478D01*
X5032756Y5400395D01*
X5026609Y5397550D01*
X5020919Y5393944D01*
X5015687Y5389727D01*
X5011013Y5384850D01*
X5006949Y5379466D01*
X5003596Y5373624D01*
X5000955Y5367426D01*
X4999126Y5360924D01*
X4998110Y5354269D01*
X4997907Y5347512D01*
X4998516Y5340807D01*
X4999939Y5334203D01*
X5002174Y5327853D01*
X5005171Y5321808D01*
X5008880Y5316169D01*
X5013248Y5311038D01*
X5018227Y5306466D01*
X5023713Y5302554D01*
X5029657Y5299354D01*
X5035905Y5296865D01*
X5042458Y5295188D01*
X5049113Y5294325D01*
X5122519Y5294223D01*
X5129225Y5294680D01*
X5132578Y5295188D01*
X5139080Y5296865D01*
X5145379Y5299354D01*
X5151272Y5302554D01*
X5156758Y5306466D01*
X5161737Y5311038D01*
X5166106Y5316169D01*
X5169814Y5321808D01*
X5172811Y5327853D01*
X5175046Y5334203D01*
X5176469Y5340807D01*
X5177129Y5347512D01*
X5176875Y5354269D01*
X5175859Y5360924D01*
X5174030Y5367426D01*
X5171389Y5373624D01*
X5168036Y5379466D01*
X5164023Y5384850D01*
X5159349Y5389727D01*
X5154117Y5393944D01*
X5148376Y5397550D01*
X5142280Y5400395D01*
X5135829Y5402478D01*
X5129225Y5403748D01*
X5122519Y5404205D01*
G37*
G36*
X5052517Y4764227D02*
G01*
X5049113Y4764125D01*
X5042408Y4763262D01*
X5035804Y4761636D01*
X5029504Y4759198D01*
X5023561Y4755946D01*
X5020716Y4754118D01*
X5015433Y4749850D01*
X5010708Y4744974D01*
X5006644Y4739589D01*
X5003241Y4733747D01*
X5000599Y4727498D01*
X4998770Y4720996D01*
X4997754Y4714290D01*
X4997500Y4707534D01*
X4998161Y4700778D01*
X4999583Y4694174D01*
X5000599Y4690922D01*
X5003241Y4684674D01*
X5006644Y4678832D01*
X5010708Y4673396D01*
X5015433Y4668570D01*
X5020716Y4664303D01*
X5026456Y4660747D01*
X5032654Y4657902D01*
X5039106Y4655870D01*
X5045760Y4654600D01*
X5052517Y4654194D01*
X5125872Y4654296D01*
X5129276Y4654600D01*
X5135930Y4655870D01*
X5142382Y4657902D01*
X5148529Y4660747D01*
X5154269Y4664303D01*
X5159552Y4668570D01*
X5164277Y4673396D01*
X5168341Y4678832D01*
X5171744Y4684674D01*
X5174386Y4690922D01*
X5176215Y4697425D01*
X5177282Y4704130D01*
X5177485Y4710887D01*
X5176875Y4717643D01*
X5175402Y4724247D01*
X5173167Y4730648D01*
X5170119Y4736693D01*
X5166410Y4742332D01*
X5161991Y4747514D01*
X5156962Y4752035D01*
X5154269Y4754118D01*
X5148529Y4757674D01*
X5142382Y4760518D01*
X5135930Y4762550D01*
X5129276Y4763770D01*
X5122519Y4764227D01*
G37*
G36*
X4753508Y4919218D02*
G01*
X4753508Y4879187D01*
X4883505Y4879187D01*
X4883505Y4919218D01*
G37*
G36*
X4753508Y5179212D02*
G01*
X4753508Y5139182D01*
X4883505Y5139182D01*
X4883505Y5179212D01*
G37*
G36*
X4753508Y5114188D02*
G01*
X4753508Y5074208D01*
X4883505Y5074208D01*
X4883505Y5114188D01*
G37*
G36*
X4753508Y5049215D02*
G01*
X4753508Y5009184D01*
X4883505Y5009184D01*
X4883505Y5049215D01*
G37*
G36*
X4753508Y4984191D02*
G01*
X4753508Y4944211D01*
X4883505Y4944211D01*
X4883505Y4984191D01*
G37*
G36*
X4774488Y5439206D02*
G01*
X4774488Y5279186D01*
X4894529Y5279186D01*
X4894529Y5439206D01*
G37*
G36*
X4774488Y4779213D02*
G01*
X4774488Y4619193D01*
X4894529Y4619193D01*
X4894529Y4779213D01*
G37*
G36*
X2679801Y6304686D02*
G01*
X2674772Y6299708D01*
X2674772Y6171692D01*
X2679801Y6166713D01*
X2794812Y6166713D01*
X2799791Y6171692D01*
X2799283Y6213703D01*
X2755290Y6213703D01*
X2755290Y6258712D01*
X2800299Y6258712D01*
X2799791Y6299708D01*
X2794812Y6304686D01*
G37*
G36*
X2894787Y6304686D02*
G01*
X2889808Y6299708D01*
X2890316Y6258712D01*
X2934309Y6258712D01*
X2934309Y6213703D01*
X2889808Y6213703D01*
X2889808Y6171692D01*
X2894787Y6166713D01*
X3009798Y6166713D01*
X3014776Y6171692D01*
X3014776Y6299708D01*
X3009798Y6304686D01*
G37*
D14*
X1095763Y5218099D02*
G01*
X1134765Y5218099D01*
X1095763Y5118100D02*
G01*
X1134765Y5118100D01*
X1095763Y5018100D02*
G01*
X1134765Y5018100D01*
X1405262Y5018100D02*
G01*
X1444264Y5018100D01*
X1405262Y5118100D02*
G01*
X1444264Y5118100D01*
X1405262Y5218099D02*
G01*
X1444264Y5218099D01*
D15*
X2633294Y4894305D02*
G01*
X2633294Y4771306D01*
X2683306Y4894305D02*
G01*
X2683306Y4771306D01*
X2733293Y4894305D02*
G01*
X2733293Y4771306D01*
X2783306Y4894305D02*
G01*
X2783306Y4771306D01*
X2833293Y4894305D02*
G01*
X2833293Y4771306D01*
X2883306Y4894305D02*
G01*
X2883306Y4771306D01*
X2933293Y4894305D02*
G01*
X2933293Y4771306D01*
X2983306Y4894305D02*
G01*
X2983306Y4771306D01*
X3033293Y4894305D02*
G01*
X3033293Y4771306D01*
X3083306Y4894305D02*
G01*
X3083306Y4771306D01*
X3133293Y4894305D02*
G01*
X3133293Y4771306D01*
X3183305Y4894305D02*
G01*
X3183305Y4771306D01*
X3271794Y4982794D02*
G01*
X3394793Y4982794D01*
X3271794Y5032806D02*
G01*
X3394793Y5032806D01*
X3271794Y5082794D02*
G01*
X3394793Y5082794D01*
X3271794Y5132806D02*
G01*
X3394793Y5132806D01*
X3271794Y5182793D02*
G01*
X3394793Y5182793D01*
X3271794Y5232806D02*
G01*
X3394793Y5232806D01*
X3271794Y5282793D02*
G01*
X3394793Y5282793D01*
X3271794Y5332806D02*
G01*
X3394793Y5332806D01*
X3271794Y5382793D02*
G01*
X3394793Y5382793D01*
X3271794Y5432805D02*
G01*
X3394793Y5432805D01*
X3271794Y5482793D02*
G01*
X3394793Y5482793D01*
X3271794Y5532805D02*
G01*
X3394793Y5532805D01*
X3183305Y5744291D02*
G01*
X3183305Y5621291D01*
X3133293Y5744291D02*
G01*
X3133293Y5621291D01*
X3083306Y5744291D02*
G01*
X3083306Y5621291D01*
X3033293Y5744291D02*
G01*
X3033293Y5621291D01*
X2983306Y5744291D02*
G01*
X2983306Y5621291D01*
X2933293Y5744291D02*
G01*
X2933293Y5621291D01*
X2883306Y5744291D02*
G01*
X2883306Y5621291D01*
X2833293Y5744291D02*
G01*
X2833293Y5621291D01*
X2783306Y5744291D02*
G01*
X2783306Y5621291D01*
X2733293Y5744291D02*
G01*
X2733293Y5621291D01*
X2683306Y5744291D02*
G01*
X2683306Y5621291D01*
X2633294Y5744291D02*
G01*
X2633294Y5621291D01*
X2421808Y5532805D02*
G01*
X2544808Y5532805D01*
X2421808Y5482793D02*
G01*
X2544808Y5482793D01*
X2421808Y5432805D02*
G01*
X2544808Y5432805D01*
X2421808Y5382793D02*
G01*
X2544808Y5382793D01*
X2421808Y5332806D02*
G01*
X2544808Y5332806D01*
X2421808Y5282793D02*
G01*
X2544808Y5282793D01*
X2421808Y5232806D02*
G01*
X2544808Y5232806D01*
X2421808Y5182793D02*
G01*
X2544808Y5182793D01*
X2421808Y5132806D02*
G01*
X2544808Y5132806D01*
X2421808Y5082794D02*
G01*
X2544808Y5082794D01*
X2421808Y5032806D02*
G01*
X2544808Y5032806D01*
X2421808Y4982794D02*
G01*
X2544808Y4982794D01*
D17*
G01*
X3983481Y4533900D03*
G01*
X4068318Y4533900D03*
D18*
G01*
X4546600Y5528818D03*
G01*
X4546600Y5443981D03*
G01*
X4546600Y5850381D03*
G01*
X4546600Y5935218D03*
D17*
G01*
X3932681Y6057900D03*
G01*
X4017518Y6057900D03*
D18*
G01*
X4495800Y4643881D03*
G01*
X4495800Y4728718D03*
G36*
X2869920Y6014186D02*
G01*
X2929915Y6014186D01*
X2929915Y5949213D01*
X2869920Y5949213D01*
G37*
G36*
X2785084Y6014186D02*
G01*
X2845079Y6014186D01*
X2845079Y5949213D01*
X2785084Y5949213D01*
G37*
G36*
X2539720Y5988786D02*
G01*
X2599715Y5988786D01*
X2599715Y5923813D01*
X2539720Y5923813D01*
G37*
G36*
X2454884Y5988786D02*
G01*
X2514879Y5988786D01*
X2514879Y5923813D01*
X2454884Y5923813D01*
G37*
G01*
X2680004Y4557572D03*
G01*
X2680004Y4642408D03*
G01*
X2850006Y4557572D03*
G01*
X2850006Y4642408D03*
G01*
X3898900Y4385818D03*
G01*
X3898900Y4300981D03*
G01*
X4152900Y4385818D03*
G01*
X4152900Y4300981D03*
G36*
X1993620Y6077686D02*
G01*
X2053615Y6077686D01*
X2053615Y6012713D01*
X1993620Y6012713D01*
G37*
G36*
X1908784Y6077686D02*
G01*
X1968779Y6077686D01*
X1968779Y6012713D01*
X1908784Y6012713D01*
G37*
G36*
X1993620Y6268186D02*
G01*
X2053615Y6268186D01*
X2053615Y6203213D01*
X1993620Y6203213D01*
G37*
G36*
X1908784Y6268186D02*
G01*
X1968779Y6268186D01*
X1968779Y6203213D01*
X1908784Y6203213D01*
G37*
G36*
X1650720Y5569686D02*
G01*
X1710715Y5569686D01*
X1710715Y5504713D01*
X1650720Y5504713D01*
G37*
G36*
X1565884Y5569686D02*
G01*
X1625879Y5569686D01*
X1625879Y5504713D01*
X1565884Y5504713D01*
G37*
G01*
X4089400Y6328918D03*
G01*
X4089400Y6244081D03*
G01*
X3835400Y6328918D03*
G01*
X3835400Y6244081D03*
G36*
X4533620Y4896586D02*
G01*
X4593615Y4896586D01*
X4593615Y4831613D01*
X4533620Y4831613D01*
G37*
G36*
X4448784Y4896586D02*
G01*
X4508779Y4896586D01*
X4508779Y4831613D01*
X4448784Y4831613D01*
G37*
G36*
X4533620Y5023586D02*
G01*
X4593615Y5023586D01*
X4593615Y4958613D01*
X4533620Y4958613D01*
G37*
G36*
X4448784Y5023586D02*
G01*
X4508779Y5023586D01*
X4508779Y4958613D01*
X4448784Y4958613D01*
G37*
G36*
X1917420Y4871186D02*
G01*
X1977415Y4871186D01*
X1977415Y4806213D01*
X1917420Y4806213D01*
G37*
G36*
X1832584Y4871186D02*
G01*
X1892579Y4871186D01*
X1892579Y4806213D01*
X1832584Y4806213D01*
G37*
G36*
X1917420Y4731486D02*
G01*
X1977415Y4731486D01*
X1977415Y4666513D01*
X1917420Y4666513D01*
G37*
G36*
X1832584Y4731486D02*
G01*
X1892579Y4731486D01*
X1892579Y4666513D01*
X1832584Y4666513D01*
G37*
D19*
G01*
X2680004Y4140200D03*
G01*
X2680004Y4292600D03*
G01*
X2984500Y4140200D03*
G01*
X2984500Y4292600D03*
G36*
X1194986Y5238099D02*
G01*
X1344988Y5238099D01*
X1344988Y4998100D01*
X1194986Y4998100D01*
G37*
D23*
G01*
X1686560Y6035039D03*
G01*
X1686560Y6159500D03*
G01*
X1686560Y6283960D03*
D24*
G01*
X1584960Y6484620D03*
G01*
X1336039Y6484620D03*
G36*
X1159382Y6313931D02*
G01*
X1309496Y6313931D01*
X1309496Y6253987D01*
X1159382Y6253987D01*
G37*
G36*
X1159382Y6189471D02*
G01*
X1309496Y6189471D01*
X1309496Y6129528D01*
X1159382Y6129528D01*
G37*
G36*
X1159382Y6065012D02*
G01*
X1309496Y6065012D01*
X1309496Y6005068D01*
X1159382Y6005068D01*
G37*
G01*
X1336039Y5834379D03*
G01*
X1584960Y5834379D03*
D25*
G01*
X1137310Y4372051D03*
G01*
X1197305Y4372051D03*
G01*
X1257300Y4372051D03*
G01*
X1317294Y4372051D03*
G01*
X1377289Y4372051D03*
G01*
X1377289Y4619548D03*
G01*
X1317294Y4619548D03*
G01*
X1257300Y4619548D03*
G01*
X1197305Y4619548D03*
G01*
X1137310Y4619548D03*
D26*
G01*
X1257300Y4495800D03*
G36*
X4394799Y5334398D02*
G01*
X4394799Y5432399D01*
X4147799Y5432399D01*
X4147799Y5334398D01*
G37*
G36*
X4394799Y5564400D02*
G01*
X4394799Y5662399D01*
X4147799Y5662399D01*
X4147799Y5564400D01*
G37*
G36*
X4394799Y5794400D02*
G01*
X4394799Y5892401D01*
X4147799Y5892401D01*
X4147799Y5794400D01*
G37*
G36*
X3827800Y5793399D02*
G01*
X3827800Y5433400D01*
X3580800Y5433400D01*
X3580800Y5793399D01*
G37*
G36*
X3299840Y4591050D02*
G01*
X3344799Y4591050D01*
X3344799Y4400550D01*
X3299840Y4400550D01*
G37*
G36*
X3419220Y4591050D02*
G01*
X3464179Y4591050D01*
X3464179Y4400550D01*
X3419220Y4400550D01*
G37*
G36*
X3538600Y4591050D02*
G01*
X3583559Y4591050D01*
X3583559Y4400550D01*
X3538600Y4400550D01*
G37*
M02*
