G04 Layer: TopSilkscreenLayer*
G04 EasyEDA v6.4.31, 2022-03-03 13:31:49*
G04 40e5de87a7664572b24e6dd0e93d503d,d021fe9ff0164b2b908f64b513dd86bf,10*
G04 Gerber Generator version 0.2*
G04 Scale: 100 percent, Rotated: No, Reflected: No *
G04 Dimensions in millimeters *
G04 leading zeros omitted , absolute positions ,4 integer and 5 decimal *
%FSLAX45Y45*%
%MOMM*%

%ADD10C,0.2540*%
%ADD11C,0.4000*%
%ADD34C,0.1524*%
%ADD35C,0.1290*%
%ADD36C,0.2000*%
%ADD37C,0.1500*%

%LPD*%
D11*
X4984241Y5674613D02*
G01*
X4964175Y5664454D01*
X4944109Y5644387D01*
X4934204Y5624576D01*
X4934204Y5584444D01*
X4944109Y5564378D01*
X4964175Y5544565D01*
X4984241Y5534405D01*
X5014213Y5524500D01*
X5064252Y5524500D01*
X5094224Y5534405D01*
X5114290Y5544565D01*
X5134102Y5564378D01*
X5144261Y5584444D01*
X5144261Y5624576D01*
X5134102Y5644387D01*
X5114290Y5664454D01*
X5094224Y5674613D01*
X4934204Y5760465D02*
G01*
X4934204Y5870447D01*
X5014213Y5810504D01*
X5014213Y5840476D01*
X5024120Y5860542D01*
X5034279Y5870447D01*
X5064252Y5880607D01*
X5084318Y5880607D01*
X5114290Y5870447D01*
X5134102Y5850381D01*
X5144261Y5820410D01*
X5144261Y5790437D01*
X5134102Y5760465D01*
X5124195Y5750560D01*
X5104129Y5740400D01*
X4934204Y6006592D02*
G01*
X4944109Y5976620D01*
X4974081Y5956554D01*
X5024120Y5946394D01*
X5054091Y5946394D01*
X5104129Y5956554D01*
X5134102Y5976620D01*
X5144261Y6006592D01*
X5144261Y6026404D01*
X5134102Y6056376D01*
X5104129Y6076442D01*
X5054091Y6086602D01*
X5024120Y6086602D01*
X4974081Y6076442D01*
X4944109Y6056376D01*
X4934204Y6026404D01*
X4934204Y6006592D01*
X4934204Y6272529D02*
G01*
X4934204Y6172454D01*
X5024120Y6162547D01*
X5014213Y6172454D01*
X5004308Y6202426D01*
X5004308Y6232397D01*
X5014213Y6262623D01*
X5034279Y6282436D01*
X5064252Y6292595D01*
X5084318Y6292595D01*
X5114290Y6282436D01*
X5134102Y6262623D01*
X5144261Y6232397D01*
X5144261Y6202426D01*
X5134102Y6172454D01*
X5124195Y6162547D01*
X5104129Y6152387D01*
D36*
X1302257Y4003547D02*
G01*
X1302257Y4010405D01*
X1309115Y4023868D01*
X1315973Y4030726D01*
X1329436Y4037584D01*
X1356868Y4037584D01*
X1370329Y4030726D01*
X1377187Y4023868D01*
X1384045Y4010405D01*
X1384045Y3996689D01*
X1377187Y3982973D01*
X1363471Y3962654D01*
X1295400Y3894328D01*
X1390904Y3894328D01*
X1476755Y4037584D02*
G01*
X1456436Y4030726D01*
X1442720Y4010405D01*
X1435862Y3976115D01*
X1435862Y3955795D01*
X1442720Y3921760D01*
X1456436Y3901186D01*
X1476755Y3894328D01*
X1490471Y3894328D01*
X1510792Y3901186D01*
X1524507Y3921760D01*
X1531365Y3955795D01*
X1531365Y3976115D01*
X1524507Y4010405D01*
X1510792Y4030726D01*
X1490471Y4037584D01*
X1476755Y4037584D01*
X1583181Y4003547D02*
G01*
X1583181Y4010405D01*
X1590039Y4023868D01*
X1596644Y4030726D01*
X1610360Y4037584D01*
X1637792Y4037584D01*
X1651254Y4030726D01*
X1658112Y4023868D01*
X1664970Y4010405D01*
X1664970Y3996689D01*
X1658112Y3982973D01*
X1644395Y3962654D01*
X1576323Y3894328D01*
X1671828Y3894328D01*
X1723644Y4003547D02*
G01*
X1723644Y4010405D01*
X1730502Y4023868D01*
X1737105Y4030726D01*
X1750821Y4037584D01*
X1778254Y4037584D01*
X1791715Y4030726D01*
X1798573Y4023868D01*
X1805431Y4010405D01*
X1805431Y3996689D01*
X1798573Y3982973D01*
X1784857Y3962654D01*
X1716786Y3894328D01*
X1812289Y3894328D01*
D34*
X3989577Y4686807D02*
G01*
X3984243Y4697221D01*
X3973829Y4707636D01*
X3963670Y4712715D01*
X3942841Y4712715D01*
X3932427Y4707636D01*
X3922013Y4697221D01*
X3916679Y4686807D01*
X3911600Y4671060D01*
X3911600Y4645152D01*
X3916679Y4629657D01*
X3922013Y4619244D01*
X3932427Y4608829D01*
X3942841Y4603750D01*
X3963670Y4603750D01*
X3973829Y4608829D01*
X3984243Y4619244D01*
X3989577Y4629657D01*
X4034281Y4712715D02*
G01*
X4091431Y4712715D01*
X4060190Y4671060D01*
X4075684Y4671060D01*
X4086097Y4665979D01*
X4091431Y4660900D01*
X4096511Y4645152D01*
X4096511Y4634737D01*
X4091431Y4619244D01*
X4081018Y4608829D01*
X4065270Y4603750D01*
X4049775Y4603750D01*
X4034281Y4608829D01*
X4028947Y4613910D01*
X4023868Y4624323D01*
X4647691Y5475478D02*
G01*
X4637277Y5470144D01*
X4626863Y5459729D01*
X4621784Y5449570D01*
X4621784Y5428742D01*
X4626863Y5418328D01*
X4637277Y5407913D01*
X4647691Y5402579D01*
X4663440Y5397500D01*
X4689347Y5397500D01*
X4704841Y5402579D01*
X4715256Y5407913D01*
X4725670Y5418328D01*
X4730750Y5428742D01*
X4730750Y5449570D01*
X4725670Y5459729D01*
X4715256Y5470144D01*
X4704841Y5475478D01*
X4621784Y5561584D02*
G01*
X4694427Y5509768D01*
X4694427Y5587745D01*
X4621784Y5561584D02*
G01*
X4730750Y5561584D01*
X4533391Y6097778D02*
G01*
X4522977Y6092444D01*
X4512563Y6082029D01*
X4507484Y6071870D01*
X4507484Y6051042D01*
X4512563Y6040628D01*
X4522977Y6030213D01*
X4533391Y6024879D01*
X4549140Y6019800D01*
X4575047Y6019800D01*
X4590541Y6024879D01*
X4600956Y6030213D01*
X4611370Y6040628D01*
X4616450Y6051042D01*
X4616450Y6071870D01*
X4611370Y6082029D01*
X4600956Y6092444D01*
X4590541Y6097778D01*
X4507484Y6194297D02*
G01*
X4507484Y6142481D01*
X4554220Y6137147D01*
X4549140Y6142481D01*
X4543806Y6157976D01*
X4543806Y6173470D01*
X4549140Y6189218D01*
X4559300Y6199631D01*
X4575047Y6204712D01*
X4585461Y6204712D01*
X4600956Y6199631D01*
X4611370Y6189218D01*
X4616450Y6173470D01*
X4616450Y6157976D01*
X4611370Y6142481D01*
X4606290Y6137147D01*
X4595875Y6132068D01*
X4180077Y6109207D02*
G01*
X4174743Y6119621D01*
X4164329Y6130036D01*
X4154170Y6135115D01*
X4133341Y6135115D01*
X4122927Y6130036D01*
X4112513Y6119621D01*
X4107179Y6109207D01*
X4102100Y6093460D01*
X4102100Y6067552D01*
X4107179Y6052057D01*
X4112513Y6041644D01*
X4122927Y6031229D01*
X4133341Y6026150D01*
X4154170Y6026150D01*
X4164329Y6031229D01*
X4174743Y6041644D01*
X4180077Y6052057D01*
X4276597Y6119621D02*
G01*
X4271518Y6130036D01*
X4255770Y6135115D01*
X4245609Y6135115D01*
X4229861Y6130036D01*
X4219447Y6114287D01*
X4214368Y6088379D01*
X4214368Y6062471D01*
X4219447Y6041644D01*
X4229861Y6031229D01*
X4245609Y6026150D01*
X4250690Y6026150D01*
X4266184Y6031229D01*
X4276597Y6041644D01*
X4281931Y6057137D01*
X4281931Y6062471D01*
X4276597Y6077965D01*
X4266184Y6088379D01*
X4250690Y6093460D01*
X4245609Y6093460D01*
X4229861Y6088379D01*
X4219447Y6077965D01*
X4214368Y6062471D01*
X4319777Y4712207D02*
G01*
X4314443Y4722621D01*
X4304029Y4733036D01*
X4293870Y4738115D01*
X4273041Y4738115D01*
X4262627Y4733036D01*
X4252213Y4722621D01*
X4246879Y4712207D01*
X4241800Y4696460D01*
X4241800Y4670552D01*
X4246879Y4655057D01*
X4252213Y4644644D01*
X4262627Y4634229D01*
X4273041Y4629150D01*
X4293870Y4629150D01*
X4304029Y4634229D01*
X4314443Y4644644D01*
X4319777Y4655057D01*
X4426711Y4738115D02*
G01*
X4374895Y4629150D01*
X4354068Y4738115D02*
G01*
X4426711Y4738115D01*
X3075177Y6058407D02*
G01*
X3069843Y6068821D01*
X3059429Y6079236D01*
X3049270Y6084315D01*
X3028441Y6084315D01*
X3018027Y6079236D01*
X3007613Y6068821D01*
X3002279Y6058407D01*
X2997200Y6042660D01*
X2997200Y6016752D01*
X3002279Y6001257D01*
X3007613Y5990844D01*
X3018027Y5980429D01*
X3028441Y5975350D01*
X3049270Y5975350D01*
X3059429Y5980429D01*
X3069843Y5990844D01*
X3075177Y6001257D01*
X3135375Y6084315D02*
G01*
X3119881Y6079236D01*
X3114547Y6068821D01*
X3114547Y6058407D01*
X3119881Y6047994D01*
X3130295Y6042660D01*
X3150870Y6037579D01*
X3166618Y6032500D01*
X3177031Y6022086D01*
X3182111Y6011671D01*
X3182111Y5995923D01*
X3177031Y5985510D01*
X3171697Y5980429D01*
X3156204Y5975350D01*
X3135375Y5975350D01*
X3119881Y5980429D01*
X3114547Y5985510D01*
X3109468Y5995923D01*
X3109468Y6011671D01*
X3114547Y6022086D01*
X3124961Y6032500D01*
X3140709Y6037579D01*
X3161284Y6042660D01*
X3171697Y6047994D01*
X3177031Y6058407D01*
X3177031Y6068821D01*
X3171697Y6079236D01*
X3156204Y6084315D01*
X3135375Y6084315D01*
X2463800Y6135115D02*
G01*
X2463800Y6026150D01*
X2463800Y6135115D02*
G01*
X2510536Y6135115D01*
X2526029Y6130036D01*
X2531363Y6124702D01*
X2536443Y6114287D01*
X2536443Y6103873D01*
X2531363Y6093460D01*
X2526029Y6088379D01*
X2510536Y6083300D01*
X2463800Y6083300D01*
X2500122Y6083300D02*
G01*
X2536443Y6026150D01*
X2570734Y6114287D02*
G01*
X2581147Y6119621D01*
X2596895Y6135115D01*
X2596895Y6026150D01*
X2500878Y4457710D02*
G01*
X2609844Y4457710D01*
X2500878Y4457710D02*
G01*
X2500878Y4504446D01*
X2505958Y4519940D01*
X2511292Y4525274D01*
X2521706Y4530354D01*
X2532120Y4530354D01*
X2542534Y4525274D01*
X2547614Y4519940D01*
X2552694Y4504446D01*
X2552694Y4457710D01*
X2552694Y4494032D02*
G01*
X2609844Y4530354D01*
X2526786Y4569978D02*
G01*
X2521706Y4569978D01*
X2511292Y4575058D01*
X2505958Y4580392D01*
X2500878Y4590806D01*
X2500878Y4611380D01*
X2505958Y4621794D01*
X2511292Y4627128D01*
X2521706Y4632208D01*
X2532120Y4632208D01*
X2542534Y4627128D01*
X2558028Y4616714D01*
X2609844Y4564644D01*
X2609844Y4637542D01*
X2919976Y4470410D02*
G01*
X3028942Y4470410D01*
X2919976Y4470410D02*
G01*
X2919976Y4517146D01*
X2925056Y4532640D01*
X2930390Y4537974D01*
X2940804Y4543054D01*
X2951218Y4543054D01*
X2961632Y4537974D01*
X2966712Y4532640D01*
X2971792Y4517146D01*
X2971792Y4470410D01*
X2971792Y4506732D02*
G01*
X3028942Y4543054D01*
X2919976Y4587758D02*
G01*
X2919976Y4644908D01*
X2961632Y4613920D01*
X2961632Y4629414D01*
X2966712Y4639828D01*
X2971792Y4644908D01*
X2987540Y4650242D01*
X2997954Y4650242D01*
X3013448Y4644908D01*
X3023862Y4634494D01*
X3028942Y4619000D01*
X3028942Y4603506D01*
X3023862Y4587758D01*
X3018782Y4582678D01*
X3008368Y4577344D01*
X3657600Y4331715D02*
G01*
X3657600Y4222750D01*
X3657600Y4331715D02*
G01*
X3704336Y4331715D01*
X3719829Y4326636D01*
X3725163Y4321302D01*
X3730243Y4310887D01*
X3730243Y4300473D01*
X3725163Y4290060D01*
X3719829Y4284979D01*
X3704336Y4279900D01*
X3657600Y4279900D01*
X3693922Y4279900D02*
G01*
X3730243Y4222750D01*
X3816604Y4331715D02*
G01*
X3764534Y4259071D01*
X3842511Y4259071D01*
X3816604Y4331715D02*
G01*
X3816604Y4222750D01*
X4229100Y4331715D02*
G01*
X4229100Y4222750D01*
X4229100Y4331715D02*
G01*
X4275836Y4331715D01*
X4291329Y4326636D01*
X4296663Y4321302D01*
X4301743Y4310887D01*
X4301743Y4300473D01*
X4296663Y4290060D01*
X4291329Y4284979D01*
X4275836Y4279900D01*
X4229100Y4279900D01*
X4265422Y4279900D02*
G01*
X4301743Y4222750D01*
X4398518Y4331715D02*
G01*
X4346447Y4331715D01*
X4341368Y4284979D01*
X4346447Y4290060D01*
X4362195Y4295394D01*
X4377690Y4295394D01*
X4393184Y4290060D01*
X4403597Y4279900D01*
X4408931Y4264152D01*
X4408931Y4253737D01*
X4403597Y4238244D01*
X4393184Y4227829D01*
X4377690Y4222750D01*
X4362195Y4222750D01*
X4346447Y4227829D01*
X4341368Y4232910D01*
X4336034Y4243323D01*
X2120900Y6122415D02*
G01*
X2120900Y6013450D01*
X2120900Y6122415D02*
G01*
X2167636Y6122415D01*
X2183129Y6117336D01*
X2188463Y6112002D01*
X2193543Y6101587D01*
X2193543Y6091173D01*
X2188463Y6080760D01*
X2183129Y6075679D01*
X2167636Y6070600D01*
X2120900Y6070600D01*
X2157222Y6070600D02*
G01*
X2193543Y6013450D01*
X2290318Y6106921D02*
G01*
X2284984Y6117336D01*
X2269490Y6122415D01*
X2259075Y6122415D01*
X2243581Y6117336D01*
X2233168Y6101587D01*
X2227834Y6075679D01*
X2227834Y6049771D01*
X2233168Y6028944D01*
X2243581Y6018529D01*
X2259075Y6013450D01*
X2264409Y6013450D01*
X2279904Y6018529D01*
X2290318Y6028944D01*
X2295397Y6044437D01*
X2295397Y6049771D01*
X2290318Y6065265D01*
X2279904Y6075679D01*
X2264409Y6080760D01*
X2259075Y6080760D01*
X2243581Y6075679D01*
X2233168Y6065265D01*
X2227834Y6049771D01*
X2120900Y6300215D02*
G01*
X2120900Y6191250D01*
X2120900Y6300215D02*
G01*
X2167636Y6300215D01*
X2183129Y6295136D01*
X2188463Y6289802D01*
X2193543Y6279387D01*
X2193543Y6268973D01*
X2188463Y6258560D01*
X2183129Y6253479D01*
X2167636Y6248400D01*
X2120900Y6248400D01*
X2157222Y6248400D02*
G01*
X2193543Y6191250D01*
X2300731Y6300215D02*
G01*
X2248661Y6191250D01*
X2227834Y6300215D02*
G01*
X2300731Y6300215D01*
X1637537Y5728715D02*
G01*
X1637537Y5619750D01*
X1637537Y5728715D02*
G01*
X1684273Y5728715D01*
X1699768Y5723636D01*
X1705102Y5718302D01*
X1710181Y5707887D01*
X1710181Y5697473D01*
X1705102Y5687060D01*
X1699768Y5681979D01*
X1684273Y5676900D01*
X1637537Y5676900D01*
X1673860Y5676900D02*
G01*
X1710181Y5619750D01*
X1770634Y5728715D02*
G01*
X1754886Y5723636D01*
X1749805Y5713221D01*
X1749805Y5702807D01*
X1754886Y5692394D01*
X1765300Y5687060D01*
X1786128Y5681979D01*
X1801621Y5676900D01*
X1812036Y5666486D01*
X1817370Y5656071D01*
X1817370Y5640323D01*
X1812036Y5629910D01*
X1806955Y5624829D01*
X1791207Y5619750D01*
X1770634Y5619750D01*
X1754886Y5624829D01*
X1749805Y5629910D01*
X1744471Y5640323D01*
X1744471Y5656071D01*
X1749805Y5666486D01*
X1760220Y5676900D01*
X1775713Y5681979D01*
X1796542Y5687060D01*
X1806955Y5692394D01*
X1812036Y5702807D01*
X1812036Y5713221D01*
X1806955Y5723636D01*
X1791207Y5728715D01*
X1770634Y5728715D01*
X3897884Y6172200D02*
G01*
X4006850Y6172200D01*
X3897884Y6172200D02*
G01*
X3897884Y6218936D01*
X3902963Y6234429D01*
X3908297Y6239763D01*
X3918711Y6244844D01*
X3929125Y6244844D01*
X3939540Y6239763D01*
X3944620Y6234429D01*
X3949700Y6218936D01*
X3949700Y6172200D01*
X3949700Y6208521D02*
G01*
X4006850Y6244844D01*
X3934206Y6346697D02*
G01*
X3949700Y6341618D01*
X3960113Y6331204D01*
X3965447Y6315710D01*
X3965447Y6310376D01*
X3960113Y6294881D01*
X3949700Y6284468D01*
X3934206Y6279134D01*
X3929125Y6279134D01*
X3913377Y6284468D01*
X3902963Y6294881D01*
X3897884Y6310376D01*
X3897884Y6315710D01*
X3902963Y6331204D01*
X3913377Y6341618D01*
X3934206Y6346697D01*
X3960113Y6346697D01*
X3986275Y6341618D01*
X4001770Y6331204D01*
X4006850Y6315710D01*
X4006850Y6305295D01*
X4001770Y6289547D01*
X3991356Y6284468D01*
X3631184Y6184900D02*
G01*
X3740150Y6184900D01*
X3631184Y6184900D02*
G01*
X3631184Y6231636D01*
X3636263Y6247129D01*
X3641597Y6252463D01*
X3652011Y6257544D01*
X3662425Y6257544D01*
X3672840Y6252463D01*
X3677920Y6247129D01*
X3683000Y6231636D01*
X3683000Y6184900D01*
X3683000Y6221221D02*
G01*
X3740150Y6257544D01*
X3652011Y6291834D02*
G01*
X3646677Y6302247D01*
X3631184Y6317995D01*
X3740150Y6317995D01*
X3631184Y6383273D02*
G01*
X3636263Y6367779D01*
X3652011Y6357365D01*
X3677920Y6352286D01*
X3693413Y6352286D01*
X3719575Y6357365D01*
X3735070Y6367779D01*
X3740150Y6383273D01*
X3740150Y6393687D01*
X3735070Y6409436D01*
X3719575Y6419850D01*
X3693413Y6424929D01*
X3677920Y6424929D01*
X3652011Y6419850D01*
X3636263Y6409436D01*
X3631184Y6393687D01*
X3631184Y6383273D01*
X4432300Y5157215D02*
G01*
X4432300Y5048250D01*
X4432300Y5157215D02*
G01*
X4479036Y5157215D01*
X4494529Y5152136D01*
X4499863Y5146802D01*
X4504943Y5136387D01*
X4504943Y5125973D01*
X4499863Y5115560D01*
X4494529Y5110479D01*
X4479036Y5105400D01*
X4432300Y5105400D01*
X4468622Y5105400D02*
G01*
X4504943Y5048250D01*
X4539234Y5136387D02*
G01*
X4549647Y5141721D01*
X4565395Y5157215D01*
X4565395Y5048250D01*
X4599686Y5136387D02*
G01*
X4610100Y5141721D01*
X4625593Y5157215D01*
X4625593Y5048250D01*
X4432300Y5296915D02*
G01*
X4432300Y5187950D01*
X4432300Y5296915D02*
G01*
X4479036Y5296915D01*
X4494529Y5291836D01*
X4499863Y5286502D01*
X4504943Y5276087D01*
X4504943Y5265673D01*
X4499863Y5255260D01*
X4494529Y5250179D01*
X4479036Y5245100D01*
X4432300Y5245100D01*
X4468622Y5245100D02*
G01*
X4504943Y5187950D01*
X4539234Y5276087D02*
G01*
X4549647Y5281421D01*
X4565395Y5296915D01*
X4565395Y5187950D01*
X4604765Y5271007D02*
G01*
X4604765Y5276087D01*
X4610100Y5286502D01*
X4615179Y5291836D01*
X4625593Y5296915D01*
X4646422Y5296915D01*
X4656836Y5291836D01*
X4661915Y5286502D01*
X4667250Y5276087D01*
X4667250Y5265673D01*
X4661915Y5255260D01*
X4651502Y5239765D01*
X4599686Y5187950D01*
X4672329Y5187950D01*
X1816100Y5042915D02*
G01*
X1816100Y4933950D01*
X1816100Y5042915D02*
G01*
X1862836Y5042915D01*
X1878329Y5037836D01*
X1883663Y5032502D01*
X1888744Y5022087D01*
X1888744Y5011673D01*
X1883663Y5001260D01*
X1878329Y4996179D01*
X1862836Y4991100D01*
X1816100Y4991100D01*
X1852421Y4991100D02*
G01*
X1888744Y4933950D01*
X1923034Y5022087D02*
G01*
X1933447Y5027421D01*
X1949195Y5042915D01*
X1949195Y4933950D01*
X1993900Y5042915D02*
G01*
X2051050Y5042915D01*
X2019808Y5001260D01*
X2035302Y5001260D01*
X2045715Y4996179D01*
X2051050Y4991100D01*
X2056129Y4975352D01*
X2056129Y4964937D01*
X2051050Y4949444D01*
X2040636Y4939029D01*
X2024888Y4933950D01*
X2009393Y4933950D01*
X1993900Y4939029D01*
X1988565Y4944110D01*
X1983486Y4954523D01*
X1816100Y4611115D02*
G01*
X1816100Y4502150D01*
X1816100Y4611115D02*
G01*
X1862836Y4611115D01*
X1878329Y4606036D01*
X1883663Y4600702D01*
X1888744Y4590287D01*
X1888744Y4579873D01*
X1883663Y4569460D01*
X1878329Y4564379D01*
X1862836Y4559300D01*
X1816100Y4559300D01*
X1852421Y4559300D02*
G01*
X1888744Y4502150D01*
X1923034Y4590287D02*
G01*
X1933447Y4595621D01*
X1949195Y4611115D01*
X1949195Y4502150D01*
X2035302Y4611115D02*
G01*
X1983486Y4538471D01*
X2061209Y4538471D01*
X2035302Y4611115D02*
G01*
X2035302Y4502150D01*
X2450084Y4127449D02*
G01*
X2559050Y4127449D01*
X2450084Y4127449D02*
G01*
X2450084Y4163771D01*
X2455163Y4179519D01*
X2465577Y4189933D01*
X2475991Y4195013D01*
X2491740Y4200347D01*
X2517647Y4200347D01*
X2533141Y4195013D01*
X2543556Y4189933D01*
X2553970Y4179519D01*
X2559050Y4163771D01*
X2559050Y4127449D01*
X2470911Y4234637D02*
G01*
X2465577Y4244797D01*
X2450084Y4260545D01*
X2559050Y4260545D01*
X2780284Y4127500D02*
G01*
X2889250Y4127500D01*
X2780284Y4127500D02*
G01*
X2780284Y4163821D01*
X2785363Y4179570D01*
X2795777Y4189729D01*
X2806191Y4195063D01*
X2821940Y4200144D01*
X2847847Y4200144D01*
X2863341Y4195063D01*
X2873756Y4189729D01*
X2884170Y4179570D01*
X2889250Y4163821D01*
X2889250Y4127500D01*
X2806191Y4239768D02*
G01*
X2801111Y4239768D01*
X2790697Y4244847D01*
X2785363Y4250181D01*
X2780284Y4260595D01*
X2780284Y4281170D01*
X2785363Y4291584D01*
X2790697Y4296918D01*
X2801111Y4301997D01*
X2811525Y4301997D01*
X2821940Y4296918D01*
X2837434Y4286504D01*
X2889250Y4234434D01*
X2889250Y4307331D01*
X4609084Y4622800D02*
G01*
X4718050Y4622800D01*
X4609084Y4622800D02*
G01*
X4718050Y4695444D01*
X4609084Y4695444D02*
G01*
X4718050Y4695444D01*
X4609084Y4760976D02*
G01*
X4614163Y4750562D01*
X4624577Y4740147D01*
X4634991Y4735068D01*
X4650740Y4729734D01*
X4676647Y4729734D01*
X4692141Y4735068D01*
X4702556Y4740147D01*
X4712970Y4750562D01*
X4718050Y4760976D01*
X4718050Y4781804D01*
X4712970Y4792218D01*
X4702556Y4802631D01*
X4692141Y4807712D01*
X4676647Y4813045D01*
X4650740Y4813045D01*
X4634991Y4807712D01*
X4624577Y4802631D01*
X4614163Y4792218D01*
X4609084Y4781804D01*
X4609084Y4760976D01*
X1291831Y5446521D02*
G01*
X1281417Y5456936D01*
X1265923Y5462015D01*
X1245095Y5462015D01*
X1229601Y5456936D01*
X1219187Y5446521D01*
X1219187Y5436107D01*
X1224267Y5425694D01*
X1229601Y5420360D01*
X1240015Y5415279D01*
X1271257Y5404865D01*
X1281417Y5399786D01*
X1286751Y5394452D01*
X1291831Y5384037D01*
X1291831Y5368544D01*
X1281417Y5358129D01*
X1265923Y5353050D01*
X1245095Y5353050D01*
X1229601Y5358129D01*
X1219187Y5368544D01*
X1326121Y5441187D02*
G01*
X1336535Y5446521D01*
X1352283Y5462015D01*
X1352283Y5353050D01*
X965200Y5893815D02*
G01*
X965200Y5815837D01*
X970279Y5800344D01*
X980694Y5789929D01*
X996442Y5784850D01*
X1006855Y5784850D01*
X1022350Y5789929D01*
X1032763Y5800344D01*
X1037844Y5815837D01*
X1037844Y5893815D01*
X1072134Y5872987D02*
G01*
X1082547Y5878321D01*
X1098295Y5893815D01*
X1098295Y5784850D01*
X1498597Y4547618D02*
G01*
X1498597Y4469640D01*
X1503677Y4454146D01*
X1514091Y4443732D01*
X1529839Y4438652D01*
X1540253Y4438652D01*
X1555747Y4443732D01*
X1566161Y4454146D01*
X1571241Y4469640D01*
X1571241Y4547618D01*
X1610865Y4521710D02*
G01*
X1610865Y4526790D01*
X1615945Y4537204D01*
X1621279Y4542538D01*
X1631693Y4547618D01*
X1652267Y4547618D01*
X1662681Y4542538D01*
X1668015Y4537204D01*
X1673095Y4526790D01*
X1673095Y4516376D01*
X1668015Y4505962D01*
X1657601Y4490468D01*
X1605531Y4438652D01*
X1678429Y4438652D01*
X2908300Y5905245D02*
G01*
X2908300Y5827268D01*
X2913379Y5811773D01*
X2923793Y5801360D01*
X2939541Y5796279D01*
X2949956Y5796279D01*
X2965450Y5801360D01*
X2975863Y5811773D01*
X2980943Y5827268D01*
X2980943Y5905245D01*
X3025647Y5905245D02*
G01*
X3082797Y5905245D01*
X3051809Y5863589D01*
X3067304Y5863589D01*
X3077718Y5858510D01*
X3082797Y5853429D01*
X3088131Y5837681D01*
X3088131Y5827268D01*
X3082797Y5811773D01*
X3072384Y5801360D01*
X3056890Y5796279D01*
X3041395Y5796279D01*
X3025647Y5801360D01*
X3020568Y5806439D01*
X3015234Y5816854D01*
X3898900Y5195315D02*
G01*
X3898900Y5117337D01*
X3903979Y5101844D01*
X3914393Y5091429D01*
X3930141Y5086350D01*
X3940556Y5086350D01*
X3956050Y5091429D01*
X3966463Y5101844D01*
X3971543Y5117337D01*
X3971543Y5195315D01*
X4057904Y5195315D02*
G01*
X4005834Y5122671D01*
X4083811Y5122671D01*
X4057904Y5195315D02*
G01*
X4057904Y5086350D01*
X2755900Y6478015D02*
G01*
X2755900Y6369050D01*
X2755900Y6478015D02*
G01*
X2802636Y6478015D01*
X2818129Y6472936D01*
X2823463Y6467602D01*
X2828543Y6457187D01*
X2828543Y6446773D01*
X2823463Y6436360D01*
X2818129Y6431279D01*
X2802636Y6426200D01*
X2755900Y6426200D01*
X2792222Y6426200D02*
G01*
X2828543Y6369050D01*
X2935731Y6462521D02*
G01*
X2925318Y6472936D01*
X2909570Y6478015D01*
X2888995Y6478015D01*
X2873247Y6472936D01*
X2862834Y6462521D01*
X2862834Y6452107D01*
X2868168Y6441694D01*
X2873247Y6436360D01*
X2883661Y6431279D01*
X2914904Y6420865D01*
X2925318Y6415786D01*
X2930397Y6410452D01*
X2935731Y6400037D01*
X2935731Y6384544D01*
X2925318Y6374129D01*
X2909570Y6369050D01*
X2888995Y6369050D01*
X2873247Y6374129D01*
X2862834Y6384544D01*
X3006343Y6478015D02*
G01*
X3006343Y6369050D01*
X2970022Y6478015D02*
G01*
X3042665Y6478015D01*
X3441700Y4738115D02*
G01*
X3483356Y4686300D01*
X3483356Y4629150D01*
X3524758Y4738115D02*
G01*
X3483356Y4686300D01*
X3559047Y4717287D02*
G01*
X3569461Y4722621D01*
X3585209Y4738115D01*
X3585209Y4629150D01*
X3247643Y4062221D02*
G01*
X3237229Y4072636D01*
X3221736Y4077715D01*
X3200908Y4077715D01*
X3185413Y4072636D01*
X3175000Y4062221D01*
X3175000Y4051807D01*
X3180079Y4041394D01*
X3185413Y4036060D01*
X3195827Y4030979D01*
X3227070Y4020565D01*
X3237229Y4015486D01*
X3242563Y4010152D01*
X3247643Y3999737D01*
X3247643Y3984244D01*
X3237229Y3973829D01*
X3221736Y3968750D01*
X3200908Y3968750D01*
X3185413Y3973829D01*
X3175000Y3984244D01*
X3281934Y4077715D02*
G01*
X3308095Y3968750D01*
X3334004Y4077715D02*
G01*
X3308095Y3968750D01*
X3334004Y4077715D02*
G01*
X3359911Y3968750D01*
X3385820Y4077715D02*
G01*
X3359911Y3968750D01*
X2933700Y6681215D02*
G01*
X2933700Y6603237D01*
X2938779Y6587744D01*
X2949193Y6577329D01*
X2964941Y6572250D01*
X2975356Y6572250D01*
X2990850Y6577329D01*
X3001263Y6587744D01*
X3006343Y6603237D01*
X3006343Y6681215D01*
X3082290Y6681215D02*
G01*
X3040634Y6572250D01*
X3082290Y6681215D02*
G01*
X3123945Y6572250D01*
X3056381Y6608571D02*
G01*
X3108197Y6608571D01*
X3158236Y6681215D02*
G01*
X3158236Y6572250D01*
X3158236Y6681215D02*
G01*
X3204972Y6681215D01*
X3220465Y6676136D01*
X3225800Y6670802D01*
X3230879Y6660387D01*
X3230879Y6649973D01*
X3225800Y6639560D01*
X3220465Y6634479D01*
X3204972Y6629400D01*
X3158236Y6629400D01*
X3194558Y6629400D02*
G01*
X3230879Y6572250D01*
X3301491Y6681215D02*
G01*
X3301491Y6572250D01*
X3265170Y6681215D02*
G01*
X3337813Y6681215D01*
X4044441Y4490720D02*
G01*
X4107941Y4490720D01*
X4107941Y4577079D01*
X4054602Y4577079D01*
X4044441Y4577079D01*
X4006341Y4577079D02*
G01*
X3945381Y4577079D01*
X3945381Y4490720D01*
X3998722Y4490720D01*
X4006341Y4490720D01*
X4503420Y5467857D02*
G01*
X4503420Y5404357D01*
X4589779Y5404357D01*
X4589779Y5457697D01*
X4589779Y5467857D01*
X4589779Y5505957D02*
G01*
X4589779Y5566918D01*
X4503420Y5566918D01*
X4503420Y5513578D01*
X4503420Y5505957D01*
X4589779Y5911342D02*
G01*
X4589779Y5974842D01*
X4503420Y5974842D01*
X4503420Y5921502D01*
X4503420Y5911342D01*
X4503420Y5873242D02*
G01*
X4503420Y5812281D01*
X4589779Y5812281D01*
X4589779Y5865621D01*
X4589779Y5873242D01*
X3993641Y6014720D02*
G01*
X4057141Y6014720D01*
X4057141Y6101079D01*
X4003802Y6101079D01*
X3993641Y6101079D01*
X3955541Y6101079D02*
G01*
X3894581Y6101079D01*
X3894581Y6014720D01*
X3947922Y6014720D01*
X3955541Y6014720D01*
X4538979Y4704842D02*
G01*
X4538979Y4768342D01*
X4452620Y4768342D01*
X4452620Y4715002D01*
X4452620Y4704842D01*
X4452620Y4666742D02*
G01*
X4452620Y4605781D01*
X4538979Y4605781D01*
X4538979Y4659121D01*
X4538979Y4666742D01*
X2838958Y6024879D02*
G01*
X2775458Y6024879D01*
X2775458Y5938520D01*
X2828797Y5938520D01*
X2838958Y5938520D01*
X2877058Y5938520D02*
G01*
X2938018Y5938520D01*
X2938018Y6024879D01*
X2884677Y6024879D01*
X2877058Y6024879D01*
X2508758Y5999479D02*
G01*
X2445258Y5999479D01*
X2445258Y5913120D01*
X2498597Y5913120D01*
X2508758Y5913120D01*
X2546858Y5913120D02*
G01*
X2607818Y5913120D01*
X2607818Y5999479D01*
X2554477Y5999479D01*
X2546858Y5999479D01*
X2723179Y4618542D02*
G01*
X2723179Y4682042D01*
X2636819Y4682042D01*
X2636819Y4628702D01*
X2636819Y4618542D01*
X2636819Y4580442D02*
G01*
X2636819Y4519482D01*
X2723179Y4519482D01*
X2723179Y4572822D01*
X2723179Y4580442D01*
X2893179Y4618542D02*
G01*
X2893179Y4682042D01*
X2806819Y4682042D01*
X2806819Y4628702D01*
X2806819Y4618542D01*
X2806819Y4580442D02*
G01*
X2806819Y4519482D01*
X2893179Y4519482D01*
X2893179Y4572822D01*
X2893179Y4580442D01*
X3855720Y4324857D02*
G01*
X3855720Y4261357D01*
X3942079Y4261357D01*
X3942079Y4314697D01*
X3942079Y4324857D01*
X3942079Y4362957D02*
G01*
X3942079Y4423918D01*
X3855720Y4423918D01*
X3855720Y4370578D01*
X3855720Y4362957D01*
X4109720Y4324857D02*
G01*
X4109720Y4261357D01*
X4196079Y4261357D01*
X4196079Y4314697D01*
X4196079Y4324857D01*
X4196079Y4362957D02*
G01*
X4196079Y4423918D01*
X4109720Y4423918D01*
X4109720Y4370578D01*
X4109720Y4362957D01*
X1962658Y6088379D02*
G01*
X1899157Y6088379D01*
X1899157Y6002020D01*
X1952497Y6002020D01*
X1962658Y6002020D01*
X2000758Y6002020D02*
G01*
X2061718Y6002020D01*
X2061718Y6088379D01*
X2008377Y6088379D01*
X2000758Y6088379D01*
X1962658Y6278879D02*
G01*
X1899157Y6278879D01*
X1899157Y6192520D01*
X1952497Y6192520D01*
X1962658Y6192520D01*
X2000758Y6192520D02*
G01*
X2061718Y6192520D01*
X2061718Y6278879D01*
X2008377Y6278879D01*
X2000758Y6278879D01*
X1619757Y5580379D02*
G01*
X1556257Y5580379D01*
X1556257Y5494020D01*
X1609597Y5494020D01*
X1619757Y5494020D01*
X1657857Y5494020D02*
G01*
X1718818Y5494020D01*
X1718818Y5580379D01*
X1665478Y5580379D01*
X1657857Y5580379D01*
X4046220Y6267957D02*
G01*
X4046220Y6204457D01*
X4132579Y6204457D01*
X4132579Y6257797D01*
X4132579Y6267957D01*
X4132579Y6306057D02*
G01*
X4132579Y6367018D01*
X4046220Y6367018D01*
X4046220Y6313678D01*
X4046220Y6306057D01*
X3792220Y6267957D02*
G01*
X3792220Y6204457D01*
X3878579Y6204457D01*
X3878579Y6257797D01*
X3878579Y6267957D01*
X3878579Y6306057D02*
G01*
X3878579Y6367018D01*
X3792220Y6367018D01*
X3792220Y6313678D01*
X3792220Y6306057D01*
X4502658Y4907279D02*
G01*
X4439158Y4907279D01*
X4439158Y4820920D01*
X4492497Y4820920D01*
X4502658Y4820920D01*
X4540758Y4820920D02*
G01*
X4601718Y4820920D01*
X4601718Y4907279D01*
X4548377Y4907279D01*
X4540758Y4907279D01*
X4502658Y5034279D02*
G01*
X4439158Y5034279D01*
X4439158Y4947920D01*
X4492497Y4947920D01*
X4502658Y4947920D01*
X4540758Y4947920D02*
G01*
X4601718Y4947920D01*
X4601718Y5034279D01*
X4548377Y5034279D01*
X4540758Y5034279D01*
X1886457Y4881879D02*
G01*
X1822957Y4881879D01*
X1822957Y4795520D01*
X1876297Y4795520D01*
X1886457Y4795520D01*
X1924557Y4795520D02*
G01*
X1985518Y4795520D01*
X1985518Y4881879D01*
X1932177Y4881879D01*
X1924557Y4881879D01*
X1886457Y4742179D02*
G01*
X1822957Y4742179D01*
X1822957Y4655820D01*
X1876297Y4655820D01*
X1886457Y4655820D01*
X1924557Y4655820D02*
G01*
X1985518Y4655820D01*
X1985518Y4742179D01*
X1932177Y4742179D01*
X1924557Y4742179D01*
D35*
X2730799Y4246879D02*
G01*
X2629199Y4246879D01*
X2629199Y4185920D02*
G01*
X2730799Y4185920D01*
X2690159Y4216400D02*
G01*
X2669839Y4216400D01*
X2659679Y4206239D02*
G01*
X2700319Y4206239D01*
X2700319Y4206239D02*
G01*
X2679999Y4226560D01*
X2679999Y4226560D02*
G01*
X2659679Y4206239D01*
X2629199Y4135120D02*
G01*
X2629199Y4297679D01*
X2629199Y4297679D02*
G01*
X2730799Y4297679D01*
X2730799Y4297679D02*
G01*
X2730799Y4135120D01*
X2730799Y4135120D02*
G01*
X2629199Y4135120D01*
X3035300Y4246879D02*
G01*
X2933700Y4246879D01*
X2933700Y4185920D02*
G01*
X3035300Y4185920D01*
X2994659Y4216400D02*
G01*
X2974340Y4216400D01*
X2964179Y4206239D02*
G01*
X3004820Y4206239D01*
X3004820Y4206239D02*
G01*
X2984500Y4226560D01*
X2984500Y4226560D02*
G01*
X2964179Y4206239D01*
X2933700Y4135120D02*
G01*
X2933700Y4297679D01*
X2933700Y4297679D02*
G01*
X3035300Y4297679D01*
X3035300Y4297679D02*
G01*
X3035300Y4135120D01*
X3035300Y4135120D02*
G01*
X2933700Y4135120D01*
D10*
X5309001Y4670204D02*
G01*
X5309001Y5389201D01*
X5300002Y5389201D02*
G01*
X5316001Y5389201D01*
X5349001Y5422201D01*
X5291002Y4670204D02*
G01*
X5309001Y4670204D01*
X5349001Y4630204D01*
X5349001Y5422201D01*
X5190144Y4670204D02*
G01*
X5291002Y4670204D01*
X4917622Y4670204D02*
G01*
X4984856Y4670204D01*
X5189557Y5389201D02*
G01*
X5300002Y5389201D01*
X4917617Y5389201D02*
G01*
X4985448Y5389201D01*
X4786002Y5202316D02*
G01*
X4786002Y5256202D01*
X4786002Y4802317D02*
G01*
X4786002Y4856088D01*
D34*
X1112367Y5275719D02*
G01*
X1427606Y5275719D01*
X1112367Y4960480D02*
G01*
X1427606Y4960480D01*
D10*
X1661160Y5783579D02*
G01*
X1734820Y5783579D01*
X1734820Y5958839D01*
X1259839Y5783579D02*
G01*
X1186179Y5783579D01*
X1186179Y5958839D01*
X1186179Y6360160D02*
G01*
X1186179Y6535420D01*
X1259839Y6535420D01*
X1661160Y6535420D02*
G01*
X1734820Y6535420D01*
X1734820Y6360160D01*
X1409700Y5783579D02*
G01*
X1511300Y5783579D01*
X1409700Y6535420D02*
G01*
X1511300Y6535420D01*
D34*
X1101453Y4353179D02*
G01*
X1049677Y4353179D01*
X1049677Y4638420D01*
X1101453Y4638420D01*
X1413146Y4353179D02*
G01*
X1464922Y4353179D01*
X1464922Y4638420D01*
X1413146Y4638420D01*
D36*
X2618740Y5591810D02*
G01*
X3238500Y5591810D01*
X3238500Y4926329D01*
X2575559Y4926329D01*
X2575559Y5591810D01*
X2651759Y5591810D01*
D34*
X3850660Y5280779D02*
G01*
X3850660Y5946020D01*
X4124939Y5946020D01*
X4124939Y5280779D01*
X3850660Y5280779D01*
X2892419Y6143990D02*
G01*
X3020913Y6143990D01*
X3020913Y6327409D01*
X2892419Y6327409D01*
X2797180Y6143990D02*
G01*
X2668686Y6143990D01*
X2668686Y6327409D01*
X2797180Y6327409D01*
D10*
X3629659Y4561839D02*
G01*
X3629659Y4432300D01*
X3253740Y4432300D02*
G01*
X3253740Y4561839D01*
X4554900Y4191000D02*
G01*
X4554900Y3937000D01*
X3496899Y4191000D02*
G01*
X4554900Y4191000D01*
X3774252Y4191000D02*
G01*
X3774252Y3937000D01*
X3496899Y3937000D02*
G01*
X4554900Y3937000D01*
X3496899Y4191000D02*
G01*
X3496899Y3937000D01*
X4491400Y6718300D02*
G01*
X4491400Y6464300D01*
X3433399Y6718300D02*
G01*
X4491400Y6718300D01*
X3710752Y6718300D02*
G01*
X3710752Y6464300D01*
X3433399Y6464300D02*
G01*
X4491400Y6464300D01*
X3433399Y6718300D02*
G01*
X3433399Y6464300D01*
D11*
G75*
G01*
X2569301Y4851801D02*
G03*
X2569555Y4851801I127J-19999D01*
D10*
G75*
G01
X4765167Y4839208D02*
G03X4765167Y4839208I-13157J0D01*
D36*
G75*
G01
X1048004Y5218100D02*
G03X1048004Y5218100I-10008J0D01*
D10*
G75*
G01
X1861820Y6035040D02*
G03X1861820Y6035040I-25400J0D01*
D37*
G75*
G01
X1144803Y4300804D02*
G03X1144803Y4300804I-7493J0D01*
D10*
G75*
G01
X2663342Y4974793D02*
G03X2663342Y4974793I-17043J0D01*
M02*
