G04 Layer: TopSolderMaskLayer*
G04 EasyEDA v6.4.31, 2022-03-03 13:31:49*
G04 40e5de87a7664572b24e6dd0e93d503d,d021fe9ff0164b2b908f64b513dd86bf,10*
G04 Gerber Generator version 0.2*
G04 Scale: 100 percent, Rotated: No, Reflected: No *
G04 Dimensions in millimeters *
G04 leading zeros omitted , absolute positions ,4 integer and 5 decimal *
%FSLAX45Y45*%
%MOMM*%

%ADD39C,1.2000*%
%ADD40C,0.6616*%
%ADD41C,0.3700*%
%ADD57C,1.8016*%

%LPD*%
D39*
X5122494Y5349214D02*
G01*
X5052494Y5349214D01*
X5122494Y4709210D02*
G01*
X5052494Y4709210D01*
D40*
X1095763Y5218099D02*
G01*
X1134765Y5218099D01*
X1095763Y5118100D02*
G01*
X1134765Y5118100D01*
X1095763Y5018100D02*
G01*
X1134765Y5018100D01*
X1405262Y5018100D02*
G01*
X1444264Y5018100D01*
X1405262Y5118100D02*
G01*
X1444264Y5118100D01*
X1405262Y5218099D02*
G01*
X1444264Y5218099D01*
D41*
X2633294Y4894305D02*
G01*
X2633294Y4771306D01*
X2683306Y4894305D02*
G01*
X2683306Y4771306D01*
X2733293Y4894305D02*
G01*
X2733293Y4771306D01*
X2783306Y4894305D02*
G01*
X2783306Y4771306D01*
X2833293Y4894305D02*
G01*
X2833293Y4771306D01*
X2883306Y4894305D02*
G01*
X2883306Y4771306D01*
X2933293Y4894305D02*
G01*
X2933293Y4771306D01*
X2983306Y4894305D02*
G01*
X2983306Y4771306D01*
X3033293Y4894305D02*
G01*
X3033293Y4771306D01*
X3083306Y4894305D02*
G01*
X3083306Y4771306D01*
X3133293Y4894305D02*
G01*
X3133293Y4771306D01*
X3183305Y4894305D02*
G01*
X3183305Y4771306D01*
X3271794Y4982794D02*
G01*
X3394793Y4982794D01*
X3271794Y5032806D02*
G01*
X3394793Y5032806D01*
X3271794Y5082794D02*
G01*
X3394793Y5082794D01*
X3271794Y5132806D02*
G01*
X3394793Y5132806D01*
X3271794Y5182793D02*
G01*
X3394793Y5182793D01*
X3271794Y5232806D02*
G01*
X3394793Y5232806D01*
X3271794Y5282793D02*
G01*
X3394793Y5282793D01*
X3271794Y5332806D02*
G01*
X3394793Y5332806D01*
X3271794Y5382793D02*
G01*
X3394793Y5382793D01*
X3271794Y5432805D02*
G01*
X3394793Y5432805D01*
X3271794Y5482793D02*
G01*
X3394793Y5482793D01*
X3271794Y5532805D02*
G01*
X3394793Y5532805D01*
X3183305Y5744291D02*
G01*
X3183305Y5621291D01*
X3133293Y5744291D02*
G01*
X3133293Y5621291D01*
X3083306Y5744291D02*
G01*
X3083306Y5621291D01*
X3033293Y5744291D02*
G01*
X3033293Y5621291D01*
X2983306Y5744291D02*
G01*
X2983306Y5621291D01*
X2933293Y5744291D02*
G01*
X2933293Y5621291D01*
X2883306Y5744291D02*
G01*
X2883306Y5621291D01*
X2833293Y5744291D02*
G01*
X2833293Y5621291D01*
X2783306Y5744291D02*
G01*
X2783306Y5621291D01*
X2733293Y5744291D02*
G01*
X2733293Y5621291D01*
X2683306Y5744291D02*
G01*
X2683306Y5621291D01*
X2633294Y5744291D02*
G01*
X2633294Y5621291D01*
X2421808Y5532805D02*
G01*
X2544808Y5532805D01*
X2421808Y5482793D02*
G01*
X2544808Y5482793D01*
X2421808Y5432805D02*
G01*
X2544808Y5432805D01*
X2421808Y5382793D02*
G01*
X2544808Y5382793D01*
X2421808Y5332806D02*
G01*
X2544808Y5332806D01*
X2421808Y5282793D02*
G01*
X2544808Y5282793D01*
X2421808Y5232806D02*
G01*
X2544808Y5232806D01*
X2421808Y5182793D02*
G01*
X2544808Y5182793D01*
X2421808Y5132806D02*
G01*
X2544808Y5132806D01*
X2421808Y5082794D02*
G01*
X2544808Y5082794D01*
X2421808Y5032806D02*
G01*
X2544808Y5032806D01*
X2421808Y4982794D02*
G01*
X2544808Y4982794D01*
G36*
X3943350Y4491228D02*
G01*
X3943350Y4576571D01*
X4023613Y4576571D01*
X4023613Y4491228D01*
G37*
G36*
X4028186Y4491228D02*
G01*
X4028186Y4576571D01*
X4108450Y4576571D01*
X4108450Y4491228D01*
G37*
G36*
X4503927Y5488686D02*
G01*
X4503927Y5568950D01*
X4589272Y5568950D01*
X4589272Y5488686D01*
G37*
G36*
X4503927Y5403850D02*
G01*
X4503927Y5484113D01*
X4589272Y5484113D01*
X4589272Y5403850D01*
G37*
G36*
X4503927Y5810250D02*
G01*
X4503927Y5890513D01*
X4589272Y5890513D01*
X4589272Y5810250D01*
G37*
G36*
X4503927Y5895086D02*
G01*
X4503927Y5975350D01*
X4589272Y5975350D01*
X4589272Y5895086D01*
G37*
G36*
X3892550Y6015228D02*
G01*
X3892550Y6100571D01*
X3972813Y6100571D01*
X3972813Y6015228D01*
G37*
G36*
X3977386Y6015228D02*
G01*
X3977386Y6100571D01*
X4057650Y6100571D01*
X4057650Y6015228D01*
G37*
G36*
X4453127Y4603750D02*
G01*
X4453127Y4684013D01*
X4538472Y4684013D01*
X4538472Y4603750D01*
G37*
G36*
X4453127Y4688586D02*
G01*
X4453127Y4768850D01*
X4538472Y4768850D01*
X4538472Y4688586D01*
G37*
G36*
X2859786Y5939028D02*
G01*
X2859786Y6024371D01*
X2940050Y6024371D01*
X2940050Y5939028D01*
G37*
G36*
X2774950Y5939028D02*
G01*
X2774950Y6024371D01*
X2855213Y6024371D01*
X2855213Y5939028D01*
G37*
G36*
X2529586Y5913628D02*
G01*
X2529586Y5998971D01*
X2609850Y5998971D01*
X2609850Y5913628D01*
G37*
G36*
X2444750Y5913628D02*
G01*
X2444750Y5998971D01*
X2525013Y5998971D01*
X2525013Y5913628D01*
G37*
G36*
X2637281Y4517389D02*
G01*
X2637281Y4597654D01*
X2722625Y4597654D01*
X2722625Y4517389D01*
G37*
G36*
X2637281Y4602226D02*
G01*
X2637281Y4682489D01*
X2722625Y4682489D01*
X2722625Y4602226D01*
G37*
G36*
X2807461Y4517389D02*
G01*
X2807461Y4597654D01*
X2892552Y4597654D01*
X2892552Y4517389D01*
G37*
G36*
X2807461Y4602226D02*
G01*
X2807461Y4682489D01*
X2892552Y4682489D01*
X2892552Y4602226D01*
G37*
G36*
X3856227Y4345686D02*
G01*
X3856227Y4425950D01*
X3941572Y4425950D01*
X3941572Y4345686D01*
G37*
G36*
X3856227Y4260850D02*
G01*
X3856227Y4341113D01*
X3941572Y4341113D01*
X3941572Y4260850D01*
G37*
G36*
X4110227Y4345686D02*
G01*
X4110227Y4425950D01*
X4195572Y4425950D01*
X4195572Y4345686D01*
G37*
G36*
X4110227Y4260850D02*
G01*
X4110227Y4341113D01*
X4195572Y4341113D01*
X4195572Y4260850D01*
G37*
G36*
X1983486Y6002528D02*
G01*
X1983486Y6087871D01*
X2063750Y6087871D01*
X2063750Y6002528D01*
G37*
G36*
X1898650Y6002528D02*
G01*
X1898650Y6087871D01*
X1978913Y6087871D01*
X1978913Y6002528D01*
G37*
G36*
X1983486Y6193028D02*
G01*
X1983486Y6278371D01*
X2063750Y6278371D01*
X2063750Y6193028D01*
G37*
G36*
X1898650Y6193028D02*
G01*
X1898650Y6278371D01*
X1978913Y6278371D01*
X1978913Y6193028D01*
G37*
G36*
X1640586Y5494528D02*
G01*
X1640586Y5579871D01*
X1720850Y5579871D01*
X1720850Y5494528D01*
G37*
G36*
X1555750Y5494528D02*
G01*
X1555750Y5579871D01*
X1636013Y5579871D01*
X1636013Y5494528D01*
G37*
G36*
X4046727Y6288786D02*
G01*
X4046727Y6369050D01*
X4132072Y6369050D01*
X4132072Y6288786D01*
G37*
G36*
X4046727Y6203950D02*
G01*
X4046727Y6284213D01*
X4132072Y6284213D01*
X4132072Y6203950D01*
G37*
G36*
X3792727Y6288786D02*
G01*
X3792727Y6369050D01*
X3878072Y6369050D01*
X3878072Y6288786D01*
G37*
G36*
X3792727Y6203950D02*
G01*
X3792727Y6284213D01*
X3878072Y6284213D01*
X3878072Y6203950D01*
G37*
G36*
X4523486Y4821428D02*
G01*
X4523486Y4906771D01*
X4603750Y4906771D01*
X4603750Y4821428D01*
G37*
G36*
X4438650Y4821428D02*
G01*
X4438650Y4906771D01*
X4518913Y4906771D01*
X4518913Y4821428D01*
G37*
G36*
X4523486Y4948428D02*
G01*
X4523486Y5033771D01*
X4603750Y5033771D01*
X4603750Y4948428D01*
G37*
G36*
X4438650Y4948428D02*
G01*
X4438650Y5033771D01*
X4518913Y5033771D01*
X4518913Y4948428D01*
G37*
G36*
X1907286Y4796028D02*
G01*
X1907286Y4881371D01*
X1987550Y4881371D01*
X1987550Y4796028D01*
G37*
G36*
X1822450Y4796028D02*
G01*
X1822450Y4881371D01*
X1902713Y4881371D01*
X1902713Y4796028D01*
G37*
G36*
X1907286Y4656328D02*
G01*
X1907286Y4741671D01*
X1987550Y4741671D01*
X1987550Y4656328D01*
G37*
G36*
X1822450Y4656328D02*
G01*
X1822450Y4741671D01*
X1902713Y4741671D01*
X1902713Y4656328D01*
G37*
G36*
X2629408Y4089400D02*
G01*
X2629408Y4190745D01*
X2730754Y4190745D01*
X2730754Y4089400D01*
G37*
G36*
X2629408Y4241800D02*
G01*
X2629408Y4343145D01*
X2730754Y4343145D01*
X2730754Y4241800D01*
G37*
G36*
X2933954Y4089400D02*
G01*
X2933954Y4190745D01*
X3035300Y4190745D01*
X3035300Y4089400D01*
G37*
G36*
X2933954Y4241800D02*
G01*
X2933954Y4343145D01*
X3035300Y4343145D01*
X3035300Y4241800D01*
G37*
G36*
X4748529Y4874260D02*
G01*
X4748529Y4924297D01*
X4888484Y4924297D01*
X4888484Y4874260D01*
G37*
G36*
X4748529Y5134102D02*
G01*
X4748529Y5184139D01*
X4888484Y5184139D01*
X4888484Y5134102D01*
G37*
G36*
X4748529Y5069078D02*
G01*
X4748529Y5119115D01*
X4888484Y5119115D01*
X4888484Y5069078D01*
G37*
G36*
X4748529Y5004307D02*
G01*
X4748529Y5054092D01*
X4888484Y5054092D01*
X4888484Y5004307D01*
G37*
G36*
X4748529Y4939284D02*
G01*
X4748529Y4989321D01*
X4888484Y4989321D01*
X4888484Y4939284D01*
G37*
G36*
X4769611Y5274310D02*
G01*
X4769611Y5444236D01*
X4899406Y5444236D01*
X4899406Y5274310D01*
G37*
G36*
X4769611Y4614163D02*
G01*
X4769611Y4784089D01*
X4899406Y4784089D01*
X4899406Y4614163D01*
G37*
G36*
X1189989Y4993131D02*
G01*
X1189989Y5243068D01*
X1350010Y5243068D01*
X1350010Y4993131D01*
G37*
G36*
X1601470Y5994907D02*
G01*
X1601470Y6075171D01*
X1771904Y6075171D01*
X1771904Y5994907D01*
G37*
G36*
X1601470Y6119368D02*
G01*
X1601470Y6199631D01*
X1771904Y6199631D01*
X1771904Y6119368D01*
G37*
G36*
X1601470Y6243828D02*
G01*
X1601470Y6324092D01*
X1771904Y6324092D01*
X1771904Y6243828D01*
G37*
G36*
X1544828Y6399276D02*
G01*
X1544828Y6569710D01*
X1625092Y6569710D01*
X1625092Y6399276D01*
G37*
G36*
X1295907Y6399276D02*
G01*
X1295907Y6569710D01*
X1376171Y6569710D01*
X1376171Y6399276D01*
G37*
G36*
X1149350Y6243828D02*
G01*
X1149350Y6324092D01*
X1319784Y6324092D01*
X1319784Y6243828D01*
G37*
G36*
X1149350Y6119368D02*
G01*
X1149350Y6199631D01*
X1319784Y6199631D01*
X1319784Y6119368D01*
G37*
G36*
X1149350Y5994907D02*
G01*
X1149350Y6075171D01*
X1319784Y6075171D01*
X1319784Y5994907D01*
G37*
G36*
X1295907Y5749036D02*
G01*
X1295907Y5919470D01*
X1376171Y5919470D01*
X1376171Y5749036D01*
G37*
G36*
X1544828Y5749036D02*
G01*
X1544828Y5919470D01*
X1625092Y5919470D01*
X1625092Y5749036D01*
G37*
G36*
X1115313Y4325620D02*
G01*
X1115313Y4418329D01*
X1159255Y4418329D01*
X1159255Y4325620D01*
G37*
G36*
X1175512Y4325620D02*
G01*
X1175512Y4418329D01*
X1219200Y4418329D01*
X1219200Y4325620D01*
G37*
G36*
X1235455Y4325620D02*
G01*
X1235455Y4418329D01*
X1279144Y4418329D01*
X1279144Y4325620D01*
G37*
G36*
X1295400Y4325620D02*
G01*
X1295400Y4418329D01*
X1339087Y4418329D01*
X1339087Y4325620D01*
G37*
G36*
X1355344Y4325620D02*
G01*
X1355344Y4418329D01*
X1399286Y4418329D01*
X1399286Y4325620D01*
G37*
G36*
X1355344Y4573270D02*
G01*
X1355344Y4665979D01*
X1399286Y4665979D01*
X1399286Y4573270D01*
G37*
G36*
X1295400Y4573270D02*
G01*
X1295400Y4665979D01*
X1339087Y4665979D01*
X1339087Y4573270D01*
G37*
G36*
X1235455Y4573270D02*
G01*
X1235455Y4665979D01*
X1279144Y4665979D01*
X1279144Y4573270D01*
G37*
G36*
X1175512Y4573270D02*
G01*
X1175512Y4665979D01*
X1219200Y4665979D01*
X1219200Y4573270D01*
G37*
G36*
X1115313Y4573270D02*
G01*
X1115313Y4665979D01*
X1159255Y4665979D01*
X1159255Y4573270D01*
G37*
G36*
X1142237Y4430776D02*
G01*
X1142237Y4560823D01*
X1372362Y4560823D01*
X1372362Y4430776D01*
G37*
G36*
X4142740Y5329428D02*
G01*
X4142740Y5437378D01*
X4399788Y5437378D01*
X4399788Y5329428D01*
G37*
G36*
X4142740Y5559297D02*
G01*
X4142740Y5667502D01*
X4399788Y5667502D01*
X4399788Y5559297D01*
G37*
G36*
X4142740Y5789421D02*
G01*
X4142740Y5897371D01*
X4399788Y5897371D01*
X4399788Y5789421D01*
G37*
G36*
X3575811Y5428234D02*
G01*
X3575811Y5798565D01*
X3832859Y5798565D01*
X3832859Y5428234D01*
G37*
G36*
X2879597Y6161786D02*
G01*
X2879597Y6309613D01*
X3003041Y6309613D01*
X3003041Y6161786D01*
G37*
G36*
X2686558Y6161786D02*
G01*
X2686558Y6309613D01*
X2810002Y6309613D01*
X2810002Y6161786D01*
G37*
G36*
X3289808Y4390389D02*
G01*
X3289808Y4601210D01*
X3355086Y4601210D01*
X3355086Y4390389D01*
G37*
G36*
X3409188Y4390389D02*
G01*
X3409188Y4601210D01*
X3474465Y4601210D01*
X3474465Y4390389D01*
G37*
G36*
X3528313Y4390389D02*
G01*
X3528313Y4601210D01*
X3593845Y4601210D01*
X3593845Y4390389D01*
G37*
G36*
X3554729Y3973829D02*
G01*
X3554729Y4154170D01*
X3735070Y4154170D01*
X3735070Y3973829D01*
G37*
D57*
G01*
X3898900Y4064000D03*
G01*
X4152900Y4064000D03*
G01*
X4406900Y4064000D03*
G36*
X3491229Y6501129D02*
G01*
X3491229Y6681470D01*
X3671570Y6681470D01*
X3671570Y6501129D01*
G37*
G01*
X3835400Y6591300D03*
G01*
X4089400Y6591300D03*
G01*
X4343400Y6591300D03*
M02*
