G04 Layer: BottomSilkscreenLayer*
G04 EasyEDA v6.4.31, 2022-03-03 13:31:49*
G04 40e5de87a7664572b24e6dd0e93d503d,d021fe9ff0164b2b908f64b513dd86bf,10*
G04 Gerber Generator version 0.2*
G04 Scale: 100 percent, Rotated: No, Reflected: No *
G04 Dimensions in millimeters *
G04 leading zeros omitted , absolute positions ,4 integer and 5 decimal *
%FSLAX45Y45*%
%MOMM*%

%ADD38C,0.2032*%

%LPD*%
D38*
X4215363Y6159500D02*
G01*
X4072181Y6159500D01*
X4215363Y6159500D02*
G01*
X4215363Y6220863D01*
X4208546Y6241318D01*
X4201726Y6248135D01*
X4188091Y6254955D01*
X4174454Y6254955D01*
X4160817Y6248135D01*
X4153999Y6241318D01*
X4147182Y6220863D01*
X4147182Y6159500D01*
X4147182Y6207226D02*
G01*
X4072181Y6254955D01*
X4167637Y6299954D02*
G01*
X4072181Y6374955D01*
X4167637Y6374955D02*
G01*
X4072181Y6299954D01*
X3935963Y6207226D02*
G01*
X3792781Y6207226D01*
X3935963Y6159500D02*
G01*
X3935963Y6254955D01*
X3888237Y6299954D02*
G01*
X3792781Y6374955D01*
X3888237Y6374955D02*
G01*
X3792781Y6299954D01*
X4574971Y6274473D02*
G01*
X4588609Y6267655D01*
X4602246Y6254018D01*
X4609063Y6240381D01*
X4609063Y6213109D01*
X4602246Y6199471D01*
X4588609Y6185837D01*
X4574971Y6179017D01*
X4554517Y6172200D01*
X4520427Y6172200D01*
X4499973Y6179017D01*
X4486335Y6185837D01*
X4472701Y6199471D01*
X4465881Y6213109D01*
X4465881Y6240381D01*
X4472701Y6254018D01*
X4486335Y6267655D01*
X4499973Y6274473D01*
X4520427Y6274473D01*
X4520427Y6240381D02*
G01*
X4520427Y6274473D01*
X4609063Y6319471D02*
G01*
X4465881Y6319471D01*
X4609063Y6319471D02*
G01*
X4465881Y6414927D01*
X4609063Y6414927D02*
G01*
X4465881Y6414927D01*
X4609063Y6459926D02*
G01*
X4465881Y6459926D01*
X4609063Y6459926D02*
G01*
X4609063Y6507655D01*
X4602246Y6528109D01*
X4588609Y6541744D01*
X4574971Y6548564D01*
X4554517Y6555381D01*
X4520427Y6555381D01*
X4499973Y6548564D01*
X4486335Y6541744D01*
X4472701Y6528109D01*
X4465881Y6507655D01*
X4465881Y6459926D01*
X3453363Y6185837D02*
G01*
X3453363Y6260835D01*
X3398817Y6219926D01*
X3398817Y6240381D01*
X3391999Y6254018D01*
X3385182Y6260835D01*
X3364727Y6267655D01*
X3351090Y6267655D01*
X3330635Y6260835D01*
X3317001Y6247201D01*
X3310181Y6226746D01*
X3310181Y6206291D01*
X3317001Y6185837D01*
X3323818Y6179017D01*
X3337453Y6172200D01*
X3344273Y6319471D02*
G01*
X3337453Y6312654D01*
X3330635Y6319471D01*
X3337453Y6326291D01*
X3344273Y6319471D01*
X3453363Y6384927D02*
G01*
X3453363Y6459926D01*
X3398817Y6419019D01*
X3398817Y6439471D01*
X3391999Y6453108D01*
X3385182Y6459926D01*
X3364727Y6466746D01*
X3351090Y6466746D01*
X3330635Y6459926D01*
X3317001Y6446291D01*
X3310181Y6425836D01*
X3310181Y6405382D01*
X3317001Y6384927D01*
X3323818Y6378110D01*
X3337453Y6371290D01*
X3405637Y6511744D02*
G01*
X3310181Y6552653D01*
X3405637Y6593563D02*
G01*
X3310181Y6552653D01*
X4689271Y4064673D02*
G01*
X4702909Y4057855D01*
X4716546Y4044218D01*
X4723363Y4030581D01*
X4723363Y4003309D01*
X4716546Y3989671D01*
X4702909Y3976037D01*
X4689271Y3969217D01*
X4668817Y3962400D01*
X4634727Y3962400D01*
X4614273Y3969217D01*
X4600635Y3976037D01*
X4587001Y3989671D01*
X4580181Y4003309D01*
X4580181Y4030581D01*
X4587001Y4044218D01*
X4600635Y4057855D01*
X4614273Y4064673D01*
X4634727Y4064673D01*
X4634727Y4030581D02*
G01*
X4634727Y4064673D01*
X4723363Y4109671D02*
G01*
X4580181Y4109671D01*
X4723363Y4109671D02*
G01*
X4580181Y4205127D01*
X4723363Y4205127D02*
G01*
X4580181Y4205127D01*
X4723363Y4250126D02*
G01*
X4580181Y4250126D01*
X4723363Y4250126D02*
G01*
X4723363Y4297855D01*
X4716546Y4318309D01*
X4702909Y4331944D01*
X4689271Y4338764D01*
X4668817Y4345581D01*
X4634727Y4345581D01*
X4614273Y4338764D01*
X4600635Y4331944D01*
X4587001Y4318309D01*
X4580181Y4297855D01*
X4580181Y4250126D01*
X3478763Y3925237D02*
G01*
X3478763Y4000235D01*
X3424217Y3959326D01*
X3424217Y3979781D01*
X3417399Y3993418D01*
X3410582Y4000235D01*
X3390127Y4007055D01*
X3376490Y4007055D01*
X3356035Y4000235D01*
X3342401Y3986601D01*
X3335581Y3966146D01*
X3335581Y3945691D01*
X3342401Y3925237D01*
X3349218Y3918417D01*
X3362853Y3911600D01*
X3369673Y4058871D02*
G01*
X3362853Y4052054D01*
X3356035Y4058871D01*
X3362853Y4065691D01*
X3369673Y4058871D01*
X3478763Y4124327D02*
G01*
X3478763Y4199326D01*
X3424217Y4158419D01*
X3424217Y4178871D01*
X3417399Y4192508D01*
X3410582Y4199326D01*
X3390127Y4206146D01*
X3376490Y4206146D01*
X3356035Y4199326D01*
X3342401Y4185691D01*
X3335581Y4165236D01*
X3335581Y4144782D01*
X3342401Y4124327D01*
X3349218Y4117510D01*
X3362853Y4110690D01*
X3431037Y4251144D02*
G01*
X3335581Y4292053D01*
X3431037Y4332963D02*
G01*
X3335581Y4292053D01*
X4206671Y4305973D02*
G01*
X4220309Y4299155D01*
X4233946Y4285518D01*
X4240763Y4271881D01*
X4240763Y4244609D01*
X4233946Y4230971D01*
X4220309Y4217337D01*
X4206671Y4210517D01*
X4186217Y4203700D01*
X4152127Y4203700D01*
X4131673Y4210517D01*
X4118035Y4217337D01*
X4104401Y4230971D01*
X4097581Y4244609D01*
X4097581Y4271881D01*
X4104401Y4285518D01*
X4118035Y4299155D01*
X4131673Y4305973D01*
X4240763Y4350971D02*
G01*
X4097581Y4350971D01*
X4097581Y4350971D02*
G01*
X4097581Y4432790D01*
X4240763Y4477791D02*
G01*
X4097581Y4477791D01*
X4240763Y4573244D02*
G01*
X4145307Y4477791D01*
X4179399Y4511880D02*
G01*
X4097581Y4573244D01*
X3999463Y4216400D02*
G01*
X3856281Y4216400D01*
X3999463Y4216400D02*
G01*
X3999463Y4264126D01*
X3992646Y4284581D01*
X3979009Y4298218D01*
X3965371Y4305035D01*
X3944917Y4311855D01*
X3910827Y4311855D01*
X3890373Y4305035D01*
X3876735Y4298218D01*
X3863101Y4284581D01*
X3856281Y4264126D01*
X3856281Y4216400D01*
X3999463Y4356854D02*
G01*
X3856281Y4356854D01*
X3999463Y4442764D02*
G01*
X3992646Y4429127D01*
X3979009Y4415490D01*
X3965371Y4408672D01*
X3944917Y4401855D01*
X3910827Y4401855D01*
X3890373Y4408672D01*
X3876735Y4415490D01*
X3863101Y4429127D01*
X3856281Y4442764D01*
X3856281Y4470036D01*
X3863101Y4483671D01*
X3876735Y4497308D01*
X3890373Y4504126D01*
X3910827Y4510946D01*
X3944917Y4510946D01*
X3965371Y4504126D01*
X3979009Y4497308D01*
X3992646Y4483671D01*
X3999463Y4470036D01*
X3999463Y4442764D01*
M02*
